<?xml version="1.0" encoding="utf-8"?>
<!-- Generator: Adobe Illustrator 25.4.1, SVG Export Plug-In . SVG Version: 6.00 Build 0)  -->
<svg version="1.1" id="圖層_1" xmlns="http://www.w3.org/2000/svg" xmlns:xlink="http://www.w3.org/1999/xlink" x="0px" y="0px"
	 viewBox="0 0 56.7 56.7" style="enable-background:new 0 0 56.7 56.7;" xml:space="preserve">
<style type="text/css">
	.st0{fill:none;stroke:#FFFFFF;stroke-width:2.7622;stroke-miterlimit:10;}
	.st1{fill:none;stroke:#DAE259;stroke-width:2.7622;stroke-linecap:round;stroke-linejoin:round;stroke-miterlimit:10;}
	.st2{fill:none;stroke:#FFFFFF;stroke-width:2.7622;stroke-linecap:round;stroke-linejoin:round;stroke-miterlimit:10;}
</style>
<g>
	<path class="st0" d="M15.4,2c-2.8,0-4.8,2.4-4.8,5.3v1.8c0,2.9,2.1,5.3,4.8,5.3c2.8,0,4.8-2.4,4.8-5.3V7.3C20.2,4.4,18.1,2,15.4,2"
		/>
	<line class="st0" x1="24.4" y1="55.9" x2="24.4" y2="43.5"/>
	<line class="st0" x1="17.4" y1="46.2" x2="17.4" y2="55.9"/>
	<line class="st0" x1="9.2" y1="35.7" x2="9.2" y2="55.9"/>
	<path class="st1" d="M16.4,40.9l26.3,8.5l2.7-8.7c0.4-1.3-0.2-2-1.2-1.8c-1.1,0.2-2.4,0.6-3.7,0.2c-2.7-0.9-4.2-3.7-3.4-6.5
		c0.8-2.7,3.7-4.2,6.5-3.4c1.3,0.4,2.1,1.5,2.9,2.3c0.7,0.8,1.6,0.6,2-0.8l3.6-11.5c0,0-7.4-2.3-8.2-2.6c-1.3-0.4-1.5-1.3-0.8-2
		c0.8-0.8,1.9-1.6,2.3-2.9c0.8-2.7-0.7-5.6-3.4-6.5c-2.7-0.9-5.6,0.7-6.5,3.4c-0.4,1.3,0,2.6,0.3,3.7c0.2,1-0.5,1.7-1.8,1.2
		c-0.8-0.3-8.2-2.6-8.2-2.6l-5.4,17"/>
	<path class="st2" d="M11.6,25.9l1.2,3.1c0.5,1.2,1.1,1.7,2.3,2.2c0,0,5.6,1.1,7.4,1.5c-1,4.1-3.3,4.7-5.8,4.4
		c-1.5-0.2-5.5-0.7-5.5-0.7c-1.3-0.2-2.2-0.5-3.5-2.3l-1.2-2.6c-1.1-2.3-1.8-3.3-1.8-5.1c0-3.9,2-7.7,6.5-7.7c0.9,0,7.7,0,7.7,0"/>
</g>
</svg>
