<?xml version="1.0" encoding="utf-8"?>
<!-- Generator: Adobe Illustrator 25.4.1, SVG Export Plug-In . SVG Version: 6.00 Build 0)  -->
<svg version="1.1" id="圖層_1" xmlns="http://www.w3.org/2000/svg" xmlns:xlink="http://www.w3.org/1999/xlink" x="0px" y="0px"
	 viewBox="0 0 56.7 56.7" style="enable-background:new 0 0 56.7 56.7;" xml:space="preserve">
<style type="text/css">
	.st0{fill:none;stroke:#FFFFFF;stroke-width:2.2952;stroke-linecap:round;stroke-linejoin:round;stroke-miterlimit:10;}
	.st1{fill:none;stroke:#DAE259;stroke-width:2.2952;stroke-linecap:round;stroke-linejoin:round;stroke-miterlimit:10;}
	.st2{fill:none;stroke:#FFFFFF;stroke-width:2.2952;stroke-linecap:round;stroke-miterlimit:10;}
</style>
<g>
	<path class="st0" d="M20.7,41.6l9.1-8.5c1.1-0.9,1.2-2.7,0-3.5l-6.6-5.1l2.4-4.6c0,0,3,2.4,4.3,3c0,0,5.1-1.4,7.6-2.2
		c2.5-0.8,3.1-4.8,3.1-4.8l-9.8,1.7c0,0-5.9-6.1-7.1-7.6c-1.7-2-4.5-3.5-8.3-2.3L5,11.2c0,0,2.1,3.9,4.8,3.1s7.1-2.4,7.1-2.4
		l2.4,2.4c0,0-2.2,4.6-3.4,7c-1.2,2.4-0.5,5.7,4.4,8.4l3.8,2l-7,8.4"/>
	<line class="st0" x1="6.9" y1="43.6" x2="16.9" y2="32.2"/>
	<line class="st0" x1="13.4" y1="28.2" x2="2.7" y2="42.6"/>
	<polyline class="st1" points="38.2,55.4 38.2,37 54.3,37 54.3,55.4 	"/>
	<polyline class="st1" points="22.2,55.4 22.2,45 38.2,45 	"/>
	<polyline class="st1" points="6.1,55.4 6.1,51.9 22.2,51.9 	"/>
	<path class="st2" d="M31.9,11.8c-2.3,0-4-1.8-4-3.9V6.5c0-2.2,1.7-3.9,4-3.9c2.3,0,4,1.8,4,3.9v1.3C35.9,10,34.2,11.8,31.9,11.8z"
		/>
</g>
</svg>
