<?xml version="1.0" encoding="utf-8"?>
<!-- Generator: Adobe Illustrator 25.4.1, SVG Export Plug-In . SVG Version: 6.00 Build 0)  -->
<svg version="1.1" id="圖層_1" xmlns="http://www.w3.org/2000/svg" xmlns:xlink="http://www.w3.org/1999/xlink" x="0px" y="0px"
	 viewBox="0 0 56.7 56.7" style="enable-background:new 0 0 56.7 56.7;" xml:space="preserve">
<style type="text/css">
	.st0{fill:#FFFFFF;}
	.st1{fill:#DAE259;}
	.st2{fill:none;stroke:#FFFFFF;stroke-width:2.456;stroke-miterlimit:10;}
	.st3{fill:none;stroke:#FFFFFF;stroke-width:2.456;stroke-linecap:round;stroke-linejoin:round;stroke-miterlimit:10;}
</style>
<line class="st0" x1="46.4" y1="51.2" x2="49.3" y2="53.4"/>
<g>
	<path class="st1" d="M5.4,36.7v10.7c0,0.5,0.4,0.8,0.8,0.8c0.5,0,0.8-0.4,0.8-0.8V36.7c0-0.5-0.4-0.8-0.8-0.8
		C5.8,35.8,5.4,36.2,5.4,36.7z"/>
	<path class="st1" d="M18.5,36.2v11.2c0,0.5,0.4,0.8,0.8,0.8c0.5,0,0.8-0.4,0.8-0.8V36.2c0-0.5-0.4-0.8-0.8-0.8
		C18.8,35.4,18.5,35.7,18.5,36.2z"/>
	<path class="st1" d="M11.9,33.1v14.3c0,0.5,0.4,0.8,0.8,0.8c0.5,0,0.8-0.4,0.8-0.8V33.1c0-0.5-0.4-0.8-0.8-0.8
		C12.3,32.2,11.9,32.6,11.9,33.1z"/>
	<path class="st1" d="M25,36.2v11.2c0,0.5,0.4,0.8,0.8,0.8c0.5,0,0.8-0.4,0.8-0.8V36.2c0-0.5-0.4-0.8-0.8-0.8
		C25.4,35.4,25,35.7,25,36.2z"/>
	<path class="st1" d="M27,20.2l-6.8,5.5c-0.9-0.4-1.7-0.4-2.5,0.2l-2.6-1.4c-0.1-1.2-1.1-2.2-2.4-2.2c-1.3,0-2.4,1.1-2.4,2.4
		c0,0,0,0,0,0l-2.8,1.6C7.2,26.1,6.8,26,6.3,26c-1.3,0-2.4,1.1-2.4,2.4c0,1.3,1.1,2.4,2.4,2.4c1.6,0,2.7-1.4,2.3-3l2.5-1.4
		c0.4,0.5,1.1,0.8,1.8,0.8c0.8,0,1.5-0.4,1.9-0.9l2.1,1.1c-0.3,1.5,0.6,2.9,2.3,2.9c1.3,0,2.4-1.1,2.4-2.4c0-0.3-0.1-0.6-0.2-0.9
		l6.5-5.3 M6.3,29.1c-0.4,0-0.7-0.3-0.7-0.7c0-0.4,0.3-0.7,0.7-0.7C6.7,27.6,7,28,7,28.4C7,28.7,6.7,29.1,6.3,29.1z M12.8,25.5
		c-0.4,0-0.7-0.3-0.7-0.7c0-0.4,0.3-0.7,0.7-0.7c0.4,0,0.7,0.3,0.7,0.7C13.5,25.1,13.2,25.5,12.8,25.5z M19.2,28.6
		c-0.4,0-0.7-0.3-0.7-0.7c0-0.4,0.3-0.7,0.7-0.7c0.4,0,0.7,0.3,0.7,0.7C19.9,28.3,19.5,28.6,19.2,28.6z"/>
	<path class="st1" d="M40.4,50.6H2.3V12.5c0-0.5-0.4-0.8-0.8-0.8c-0.5,0-0.8,0.4-0.8,0.8v38.9c0,0.5,0.4,0.8,0.8,0.8h38.9
		c0.5,0,0.8-0.4,0.8-0.8C41.3,51,40.9,50.6,40.4,50.6z"/>
</g>
<path class="st2" d="M37.8,14.2c2.8,0,4.9-2.3,4.9-5.3V7.1c0-2.9-2.1-5.3-4.9-5.3s-4.9,2.3-4.9,5.3v1.8C32.9,11.9,35,14.2,37.8,14.2
	z"/>
<line class="st3" x1="40.2" y1="37.6" x2="41.5" y2="54.7"/>
<path class="st3" d="M34.1,30.1v13.2c0,1.8,1,3.4,2.4,4.3l4.6,2.7"/>
<polyline class="st3" points="46.4,54.7 46.4,38.1 46.4,25.3 48.8,27.7 "/>
<path class="st2" d="M46.4,33.9h2.4c2.7,0,6.2-4.9,6.2-6.2c0-1.2-2.1-4-3.3-5.3c-1.1-1.2-3.3-4.5-7.7-4.5h-7.4
	c-4.4,0-7.4,1.2-8.6,2.4c-1.2,1.2-2.4,4.4-2.4,6.2c0,1.8,1.2,3.6,1.2,3.6s9.8,0,11.1,0c0-4.9-4.9-4.9-4.9-4.9h-1.2"/>
</svg>
