<?xml version="1.0" encoding="utf-8"?>
<!-- Generator: Adobe Illustrator 24.3.0, SVG Export Plug-In . SVG Version: 6.00 Build 0)  -->
<svg version="1.1" id="圖層_1" xmlns="http://www.w3.org/2000/svg" xmlns:xlink="http://www.w3.org/1999/xlink" x="0px" y="0px"
	 viewBox="0 0 429.6 336.8" style="enable-background:new 0 0 429.6 336.8;" xml:space="preserve">
<style type="text/css">
	.st0{fill:#1E4758;}
	.st1{fill:#182446;}
	.st2{fill:#CCCCCC;}
	.st3{fill:#FFFFFF;}
	.st4{fill:#009FE8;}
	.st5{fill:#C5D344;}
	.st6{fill:none;stroke:#1E4758;stroke-width:7.1329;stroke-linejoin:round;stroke-miterlimit:10;}
</style>
<path class="st0" d="M317.7,61.5c33.3,0,60.4,27.1,60.4,60.4c0,24.5-14.7,45.6-35.7,55.1v-7.8c17.1-9,28.7-26.8,28.7-47.3
	c0-29.5-24-53.4-53.4-53.4c-29,0-52.7,23.2-53.4,52h-7C258.1,87.8,284.8,61.5,317.7,61.5z"/>
<path class="st0" d="M348.9,284.5v19c0,5.8-4.7,10.5-10.5,10.5h-257c-5.8,0-10.5-4.7-10.5-10.5v-19h6.6v1h7v-1h80l2.8,5.6h85.3
	l2.8-5.6h80v1h7v-1H348.9z M341.9,303.5v-12h-82.2l-2.8,5.6h-93.9l-2.8-5.6H77.9v12c0,2,1.5,3.5,3.5,3.5h257
	C340.4,307,341.9,305.5,341.9,303.5z"/>
<rect x="335.4" y="284.5" class="st1" width="7" height="1"/>
<path class="st0" d="M342.4,176.9v107.6h-7v-105C337.8,178.9,340.2,178,342.4,176.9z"/>
<path class="st0" d="M342.4,169.2v7.8l0,0c-2.2,1-4.6,1.9-7,2.6v-7.3C337.8,171.4,340.2,170.4,342.4,169.2z"/>
<path class="st2" d="M341.9,291.5v12c0,2-1.5,3.5-3.5,3.5h-257c-2,0-3.5-1.5-3.5-3.5v-12h82.2l2.8,5.6h93.9l2.8-5.6H341.9z"/>
<path class="st3" d="M335.4,179.6v105h-80l-2.8,5.6h-85.3l-2.8-5.6h-80V147h178.3c3.9,8.6,9.9,16.3,17.5,22.3l-1.3,22.4l19.7-12.5
	c6.1,2,12.5,3.1,19,3.1C323.8,182.2,329.8,181.4,335.4,179.6z M319.7,240.8v-7H244v7H319.7z M319.7,220.9v-7H244v7H319.7z
	 M319.7,201v-7H244v7H319.7z M285.2,260.7v-7H244v7H285.2z"/>
<path class="st0" d="M335.4,172.2v7.3c-5.6,1.7-11.5,2.6-17.8,2.6c-6.5,0-12.9-1-19-3.1l-19.7,12.5l1.3-22.4
	c-7.6-6-13.6-13.7-17.5-22.3h7.8c3.7,6.9,8.9,13.1,15.4,17.8l1.5,1.1l-0.8,12.6l11.1-7l1.6,0.6c5.8,2.1,12,3.2,18.2,3.2
	C323.9,175.3,329.9,174.2,335.4,172.2z"/>
<polygon class="st3" points="335.4,147 335.4,147 295.4,147 295.4,147 307.5,147 "/>
<rect x="317.8" y="140" class="st4" width="16.7" height="0.1"/>
<polygon class="st4" points="320.9,127.5 320.6,127.9 320.3,127.5 "/>
<rect x="244" y="233.8" class="st3" width="75.7" height="7"/>
<rect x="244" y="213.9" class="st3" width="75.7" height="7"/>
<rect x="244" y="194" class="st3" width="75.7" height="7"/>
<rect x="307.5" y="140" class="st4" width="10.3" height="0.1"/>
<polygon class="st4" points="310.9,126 311.9,127.5 310.9,127.5 "/>
<polygon class="st3" points="339.4,98.8 332.2,109.9 325.4,120.5 320.9,127.5 320.9,127.5 320.6,127.9 320.3,127.5 320.3,127.5 
	315.6,120.5 315.6,120.5 310.2,112.3 304.4,116.1 307.3,120.5 307.3,120.5 310.9,126 311.9,127.5 312,127.5 317.8,136.2 
	317.8,136.2 323.7,136.1 329.2,127.5 329.2,127.5 332.3,122.6 333.7,120.5 345.2,102.6 "/>
<rect x="302.4" y="140" class="st4" width="5.1" height="0.1"/>
<polygon class="st3" points="334.5,124.1 334.5,124.1 334.5,127.5 334.5,140 334.5,140 317.8,140 307.5,140 302.4,140 302.4,140 
	302.4,127.5 302.4,120.5 302.4,116.1 302.4,107.9 329.1,107.9 329.1,100.9 295.4,100.9 295.4,120.5 295.4,127.5 295.4,140 
	295.4,147 307.5,147 335.4,147 335.4,147 341.5,147 341.5,124.1 "/>
<path class="st5" d="M317.7,68.5c-29,0-52.7,23.2-53.4,52c0,0.4,0,0.9,0,1.4c0,1.9,0.1,3.8,0.3,5.6c0.4,4.3,1.5,8.5,2.9,12.6
	c0.9,2.4,1.9,4.8,3.2,7c3.7,6.9,8.9,13.1,15.4,17.8l1.5,1.1l-0.8,12.6l11.1-7l1.6,0.6c5.8,2.1,12,3.2,18.2,3.2
	c6.2,0,12.2-1,17.8-3.1c2.4-0.9,4.8-1.9,7-3.1c17.1-9,28.7-26.8,28.7-47.3C371.1,92.4,347.2,68.5,317.7,68.5z M341.5,147h-6.1h-40.1
	l0,0v-7v-12.6v-7v-19.6h33.8v7h-26.8v8.3v4.3v7V140h5.1h10.2h16.7v-12.6v-3.3l0,0h7L341.5,147L341.5,147z M333.7,120.5l-1.5,2.2
	l-3.1,4.8l0,0l-5.6,8.7l-5.8,0.1l0,0l-5.9-8.7l0,0h-1v-1.5l-3.8-5.6l0,0l-2.9-4.3l5.8-3.9l5.5,8.2l0,0l4.7,7l0,0h0.6l0,0l4.5-7
	l6.8-10.6l7.1-11.1l5.9,3.8L333.7,120.5z"/>
<rect x="244" y="253.7" class="st3" width="41.2" height="7"/>
<path class="st0" d="M267.5,140c0.9,2.4,1.9,4.8,3.2,7h-7.8c-1-2.3-2-4.6-2.7-7H267.5z"/>
<path class="st0" d="M267.5,140h-7.3c-1.3-4.1-2.1-8.3-2.6-12.6h7C265,131.8,266,135.9,267.5,140z"/>
<path class="st0" d="M264.6,127.5h-7c-0.2-1.9-0.3-3.8-0.3-5.6c0-0.4,0-0.9,0-1.4h7c0,0.4,0,0.9,0,1.4
	C264.2,123.7,264.4,125.6,264.6,127.5z"/>
<path class="st0" d="M262.8,147H84.5v-7h175.7C260.8,142.3,261.8,144.7,262.8,147z"/>
<path class="st2" d="M260.1,140H84.5v-12.5h173.1C257.9,131.8,258.9,135.9,260.1,140z M98.6,133.6c0-2-1.5-3.5-3.5-3.5
	c-2,0-3.5,1.5-3.5,3.5s1.5,3.5,3.5,3.5C96.9,137.1,98.6,135.5,98.6,133.6z"/>
<path class="st0" d="M257.6,127.5H84.5V140h-2.3v7h2.3v137.6h-7V120.5h179.8c0,0.4,0,0.9,0,1.4C257.3,123.7,257.4,125.6,257.6,127.5
	z"/>
<path class="st0" d="M95.1,130.1c2,0,3.5,1.5,3.5,3.5c0,2-1.5,3.5-3.5,3.5c-2,0-3.5-1.5-3.5-3.5C91.6,131.7,93.1,130.1,95.1,130.1z"
	/>
<rect x="77.5" y="284.5" class="st1" width="7" height="1"/>
<rect x="82.2" y="140" class="st0" width="2.3" height="7"/>
<polyline class="st6" points="175.1,279.8 175.1,209.8 202.5,209.8 202.5,279.8 "/>
<polyline class="st6" points="202.5,209.8 202.5,185.4 229.9,185.4 229.9,279.8 "/>
<polyline class="st6" points="229.9,185.4 229.9,161.3 257.3,161.3 257.3,279.8 "/>
<g>
	<polygon class="st0" points="125.8,186.8 120.1,186.8 111.5,172.5 117.2,169 123,178.6 134.1,160.3 139.8,163.8 	"/>
</g>
<g>
	<polygon class="st0" points="125.8,230.1 120.1,230.1 111.5,215.6 117.2,212.2 123,221.9 134.1,203.5 139.8,206.9 	"/>
</g>
<g>
	<path class="st0" d="M136.9,271.2h-22.5v-22.5h22.5V271.2z M121.1,264.6h9.2v-9.2h-9.2V264.6z"/>
</g>
<rect x="59.8" y="25.2" class="st0" width="315.4" height="55.4"/>
<g>
	<rect x="59.8" y="25.2" class="st5" width="310" height="50"/>
</g>
<g>
	<path class="st0" d="M216.8,61.6h6.9V41.3h-5.8v-4c3.2-0.6,5.4-1.4,7.5-2.7h4.7v27h6v5.2h-19.3V61.6z"/>
	<path class="st0" d="M240,63l3-4.1c1.8,1.8,4.1,3.3,7.1,3.3c3.3,0,5.7-2.1,5.7-5.9c0-3.7-2.2-5.8-5.4-5.8c-1.9,0-3,0.5-4.8,1.7
		l-2.9-1.9l0.9-15.6h17.1V40h-11.8l-0.6,6.8c1.3-0.6,2.4-0.9,3.9-0.9c5.4,0,9.9,3.2,9.9,10.2c0,7.2-5.3,11.3-11.3,11.3
		C245.8,67.4,242.4,65.4,240,63z"/>
	<path class="st0" d="M304.4,30.6c2,6.3,6.4,12.5,12.5,15.6c-1,1.1-2.8,3.3-3.7,4.8c-1.1-0.7-2.3-1.6-3.3-2.5
		c-0.5,12.8-1,17.8-2.5,19.6c-1.1,1.4-2.3,1.9-4,2.1c-1.5,0.2-4,0.2-6.6,0.1c-0.1-1.6-0.8-3.7-1.7-5.2c2.4,0.2,4.6,0.2,5.7,0.2
		c0.8,0,1.3-0.1,1.7-0.6c0.9-1,1.3-4.8,1.7-13.9h-8.6c-1.1,8.3-3.9,15.8-15.2,20c-0.7-1.5-2.2-3.6-3.4-4.8c9.8-3.2,12.1-8.9,13-15.2
		h-7.3v-2.9c-1,1.1-2.1,2.2-3.3,3.1c-0.9-1-3.1-3-4.3-3.8c4.9-3.5,8.8-9.3,10.8-15.9l5.4,1.3c-1.6,4.9-4,9.4-6.8,13.1H307
		c-2.8-3.1-5-6.7-6.6-10.4h-6.9v-4.8h10.9V30.6z"/>
	<path class="st0" d="M334.3,61.9l0.3,4.1c-5,1.2-10.2,2.3-14.1,3.3l-0.9-4.6c1.7-0.3,3.7-0.7,5.9-1.1V52.7h-5.3v-4.4h5.3v-3.2h-3
		v-1.9c-0.7,0.7-1.3,1.3-1.9,1.8c-0.3-1.1-1.2-4-1.7-5.3c3-2.3,6.2-6.1,8-10.1l3.5,1.7c-0.2,0.5-0.5,1-0.7,1.6
		c2.4,1.6,4.9,3.4,6.3,4.9l-2,4.3c-0.3-0.3-0.6-0.7-1-1v4h-3.6v3.2h4.9v4.4h-4.9v10.1L334.3,61.9z M323.4,54.3
		c0.7,2.4,1.3,5.5,1.5,7.4l-3,1c-0.2-2-0.8-5.2-1.3-7.5L323.4,54.3z M332.6,40.9c-1.5-1.4-3.3-2.9-5.2-4.1c-0.9,1.5-1.9,2.8-3,4.1
		H332.6z M329.8,61.2c0.5-2,1.1-5.1,1.4-7.3l3.4,1c-0.8,2.6-1.5,5.4-2.1,7.3L329.8,61.2z M349.9,65.9h10v3.7h-24.8v-3.7h10V64h-8.3
		v-3.6h8.3v-1.7h-7.8V46H358v12.7h-8.1v1.7h8.6V64h-8.6V65.9L349.9,65.9z M360.1,40.8v3.9h-24.8v-3.9h5.3c-0.3-1-0.6-2-1-2.8
		l2.7-0.5h-6v-3.9h8.9c-0.3-0.9-0.7-1.9-1.2-2.7l4.8-1.1c0.8,1.1,1.5,2.6,1.8,3.8h8.4v3.9h-6.2l3.2,0.6c-0.5,1-1,1.9-1.4,2.8
		L360.1,40.8L360.1,40.8z M341.6,51h3.7v-1.9h-3.7V51z M341.6,55.7h3.7v-1.9h-3.7V55.7z M343.9,37.4c0.5,1.1,1,2.4,1.2,3.3h4.7
		c0.4-1.1,0.9-2.3,1.1-3.3H343.9z M353.5,49.1h-3.8V51h3.8V49.1z M353.5,53.8h-3.8v1.9h3.8V53.8z"/>
</g>
<g>
	<path class="st0" d="M94.6,58.2v2.5H70.4v-2.5H81V43.4h-9.1v-2.6h21.3v2.6h-9.4v14.8H94.6z"/>
	<path class="st0" d="M105.8,38.7c-0.7,1.9-1.6,3.8-2.7,5.6v18.2h-2.5V48.3c-0.7,1-1.5,1.9-2.2,2.6c-0.2-0.6-1-2-1.4-2.6
		c2.6-2.5,5-6.5,6.4-10.4L105.8,38.7z M113.9,44.7v3.4h7.3v2.3h-7.3V54h7.7v2.3h-7.7v6.3h-2.6V44.7h-1.5c-1.1,2.1-2.4,4-3.7,5.4
		c-0.4-0.4-1.4-1.3-1.9-1.7c2.4-2.5,4.5-6.4,5.8-10.3l2.5,0.7c-0.4,1.2-0.9,2.3-1.4,3.5H122v2.4H113.9z"/>
	<path class="st0" d="M133,57.4h-5.6v2.3H125V39.6h8V57.4z M127.4,41.8v5.4h3.3v-5.4H127.4z M130.6,55.2v-5.7h-3.3v5.7H130.6z
		 M142.4,43.2v3.1h5.6v2.2h-2.2v2.6h2.9v2.2h-2.9v6.6c0,1.3-0.3,2-1.2,2.3c-0.9,0.4-2.3,0.4-4.4,0.4c-0.1-0.7-0.5-1.7-0.8-2.3
		c1.5,0.1,3,0.1,3.4,0.1c0.4,0,0.6-0.1,0.6-0.5v-6.6h-9.8v-2.2h9.8v-2.6h-8.8v-2.3h5.3v-3h-6.4v-2.3h6.4v-3.1h2.5v3.1h6.5v2.2
		L142.4,43.2L142.4,43.2z M137,53.9c1.2,1.4,2.7,3.2,3.4,4.5l-2.2,1.3c-0.6-1.2-2.1-3.2-3.2-4.6L137,53.9z"/>
	<path class="st0" d="M154.9,48.3v14.3h-2.5V38.9h10v9.4H154.9z M154.9,40.8v1.9h5.1v-1.9H154.9z M160,46.5v-2h-5.1v2H160z
		 M174.7,59.5c0,1.4-0.3,2.2-1.3,2.7c-0.9,0.4-2.4,0.4-4.7,0.4c-0.1-0.7-0.5-1.8-0.8-2.5h-7.3v1.4h-2.3V50.2h10.1v9.9
		c1.3,0.1,2.6,0,3.1,0s0.6-0.2,0.6-0.6V48.4h-7.7v-9.5h10.2L174.7,59.5L174.7,59.5z M160.7,52.1v2.1h5.5v-2.1
		C166.2,52.1,160.7,52.1,160.7,52.1z M166.2,58.3v-2.2h-5.5v2.2H166.2z M166.9,40.8v1.9h5.3v-1.9H166.9z M172.2,46.5v-2h-5.3v2.1
		L172.2,46.5L172.2,46.5z"/>
	<path class="st0" d="M182.1,55.7c-0.4,2.3-1.1,4.9-1.8,6.5c-0.5-0.2-1.5-0.6-2.2-0.7c0.8-1.6,1.4-4,1.7-6.2L182.1,55.7z
		 M187.6,54.1c-0.1-0.4-0.2-0.9-0.3-1.4c-6.6,1.1-7.6,1.3-8.2,1.6c-0.1-0.5-0.5-1.6-0.8-2.3c0.7-0.1,1.3-0.7,2.3-1.7
		c0.4-0.4,1.4-1.5,2.4-2.8c-2.9,0.4-3.6,0.5-4,0.7c-0.1-0.5-0.5-1.6-0.8-2.3c0.5-0.1,1.1-0.6,1.7-1.4c0.7-0.8,2.7-3.8,4-6.6l2.3,1
		c-1.3,2.3-2.9,4.8-4.5,6.7l2.9-0.2c0.8-1.1,1.5-2.2,2.1-3.3l2.1,1.4c-1.9,2.8-4.1,5.6-6.3,7.9l4.2-0.6c-0.2-0.8-0.5-1.6-0.8-2.3
		l2-0.5c0.7,1.8,1.5,4.2,1.8,5.6L187.6,54.1z M185.1,55.1c0.4,1.9,0.8,4.3,0.9,5.9l-2.1,0.6c-0.1-1.6-0.4-4.1-0.8-6L185.1,55.1z
		 M188.2,54.4c0.7,1.6,1.4,3.6,1.7,5l-1.9,0.7c-0.3-1.4-1-3.5-1.6-5.1L188.2,54.4z M202.1,42.7c0,0,0,0.9,0,1.3
		c-0.3,11.8-0.6,15.9-1.7,17.2c-0.6,0.9-1.3,1.2-2.3,1.3c-0.9,0.1-2.5,0.1-4.1,0c-0.1-0.7-0.4-1.8-0.8-2.5c1.6,0.1,3.2,0.1,3.8,0.1
		c0.5,0,0.8-0.1,1.1-0.4c0.8-0.8,1.1-4.8,1.4-14.6h-7.1c-0.6,1.4-1.4,2.7-2.1,3.8c-0.5-0.4-1.6-1.1-2.2-1.4c1.9-2.3,3.3-5.9,4.1-9.6
		l2.5,0.5c-0.4,1.5-0.8,3-1.3,4.4h8.7V42.7L202.1,42.7z M195.7,55.6c-0.8-1.6-2.8-4.1-4.6-5.9l1.8-1.3c1.8,1.6,3.9,4.1,4.8,5.7
		L195.7,55.6z"/>
</g>
</svg>
