<?xml version="1.0" encoding="utf-8"?>
<!-- Generator: Adobe Illustrator 24.3.0, SVG Export Plug-In . SVG Version: 6.00 Build 0)  -->
<svg version="1.1" id="圖層_1" xmlns="http://www.w3.org/2000/svg" xmlns:xlink="http://www.w3.org/1999/xlink" x="0px" y="0px"
	 viewBox="0 0 429.6 336.8" style="enable-background:new 0 0 429.6 336.8;" xml:space="preserve">
<style type="text/css">
	.st0{fill:#FFFFFF;stroke:#1E4758;stroke-width:6;stroke-miterlimit:10;}
	.st1{fill:#1E4758;}
	.st2{fill:#FFFFFF;}
	.st3{fill:#1E4758;stroke:#1E4758;stroke-width:2;stroke-miterlimit:10;}
	.st4{fill:#D8D8D8;}
	.st5{opacity:0.8;}
	.st6{clip-path:url(#SVGID_2_);}
	.st7{enable-background:new    ;}
</style>
<path class="st0" d="M358,95.5h-199c-4,0-7.4,3.7-7.4,8v150.8c0,4.3,3.4,8,7.4,8h199c4,0,7.4-3.7,7.4-8V103.1
	C365.5,98.8,362,95.2,358,95.5z"/>
<path class="st1" d="M365.5,95.5v7.4c0-4-3.4-7.4-7.4-7.4h-199c-4,0-7.4,3.4-7.4,7.4v-7.4c0-4,3.4-7.4,7.4-7.4h199
	C362,88.1,365.5,91.2,365.5,95.5z"/>
<path class="st1" d="M317.5,76h-22.2v19.2h22.2V80.9V76z"/>
<g>
	<g>
		<g>
			<path class="st2" d="M48.3,277.5V126.4c0-11.1,9.1-20.3,20.3-20.3h215.6c11.1,0,20.3,9.1,20.3,20.3v151.2
				c0,11.1-9.1,20.3-20.3,20.3H68.6C57.4,297.8,48.3,288.7,48.3,277.5z"/>
			<path class="st3" d="M284.2,110.2c8.9,0,16.2,7.3,16.2,16.2v151.2c0,8.9-7.3,16.2-16.2,16.2H68.6c-8.9,0-16.2-7.3-16.2-16.2
				V126.4c0-8.9,7.3-16.2,16.2-16.2H284.2 M284.2,106.1H68.6c-11.1,0-20.3,9.1-20.3,20.3v151.2c0,11.1,9.1,20.3,20.3,20.3h215.6
				c11.1,0,20.3-9.1,20.3-20.3V126.4C304.4,115.2,295.3,106.1,284.2,106.1L284.2,106.1z"/>
		</g>
		<path class="st1" d="M302.7,133.3H50c-0.5,0-1-0.5-1-1s0.5-1,1-1h252.7c0.5,0,1,0.5,1,1S303.2,133.3,302.7,133.3z"/>
		<path class="st1" d="M302.7,156.9H50c-0.5,0-1-0.5-1-1s0.5-1,1-1h252.7c0.5,0,1,0.5,1,1S303.2,156.9,302.7,156.9z"/>
		<path class="st1" d="M302.7,180.6H50c-0.5,0-1-0.5-1-1s0.5-1,1-1h252.7c0.5,0,1,0.5,1,1S303.2,180.6,302.7,180.6z"/>
		<path class="st1" d="M302.7,204.2H50c-0.5,0-1-0.5-1-1s0.5-1,1-1h252.7c0.5,0,1,0.5,1,1S303.2,204.2,302.7,204.2z"/>
		<path class="st1" d="M302.7,227.9H50c-0.5,0-1-0.5-1-1s0.5-1,1-1h252.7c0.5,0,1,0.5,1,1C303.8,227.4,303.2,227.9,302.7,227.9z"/>
		<path class="st1" d="M302.7,251.6H50c-0.5,0-1-0.5-1-1s0.5-1,1-1h252.7c0.5,0,1,0.5,1,1C303.8,251.1,303.2,251.6,302.7,251.6z"/>
		<path class="st1" d="M302.7,275.2H50c-0.5,0-1-0.5-1-1c0-0.5,0.5-1,1-1h252.7c0.5,0,1,0.5,1,1
			C303.8,274.7,303.2,275.2,302.7,275.2z"/>
	</g>
	<path class="st1" d="M119.1,295.8c-0.5,0-1-0.5-1-1V132.3c0-0.5,0.5-1,1-1c0.5,0,1,0.5,1,1v162.6
		C120.1,295.4,119.7,295.8,119.1,295.8z"/>
	<path class="st1" d="M166.7,296.1c-0.5,0-1-0.5-1-1V132.6c0-0.5,0.5-1,1-1s1,0.5,1,1v162.5C167.8,295.6,167.3,296.1,166.7,296.1z"
		/>
	<path class="st1" d="M214.5,296.5c-0.5,0-1-0.5-1-1V132.9c0-0.5,0.5-1,1-1s1,0.5,1,1v162.6C215.4,296,215,296.5,214.5,296.5z"/>
	<path class="st1" d="M262.1,296.7c-0.5,0-1-0.5-1-1V133.3c0-0.5,0.5-1,1-1c0.5,0,1,0.5,1,1v162.6
		C263.1,296.4,262.6,296.7,262.1,296.7z"/>
</g>
<rect x="53.4" y="156.8" class="st4" width="246" height="21.8"/>
<rect x="53.4" y="204.2" class="st4" width="246.2" height="21.6"/>
<rect x="53.4" y="251.7" class="st4" width="246.2" height="21.5"/>
<g>
	<path class="st1" d="M225.6,194.4h-0.7c-1.5,0-2.6-1.2-2.6-2.6c0-1.5,1.2-2.6,2.6-2.6h0.7c1.5,0,2.6,1.2,2.6,2.6
		C228.2,193.2,227,194.4,225.6,194.4z"/>
	<path class="st1" d="M244.8,194.4h-1.2c-1.5,0-2.6-1.2-2.6-2.6c0-1.5,1.2-2.6,2.6-2.6h1.2c1.5,0,2.6,1.2,2.6,2.6
		C247.5,193.2,246.4,194.4,244.8,194.4z M235.3,194.4h-1.2c-1.5,0-2.6-1.2-2.6-2.6c0-1.5,1.2-2.6,2.6-2.6h1.2c1.5,0,2.6,1.2,2.6,2.6
		C237.9,193.2,236.7,194.4,235.3,194.4z"/>
	<path class="st1" d="M254,194.4h-0.7c-1.5,0-2.6-1.2-2.6-2.6c0-1.5,1.2-2.6,2.6-2.6h0.7c1.5,0,2.6,1.2,2.6,2.6
		C256.6,193.2,255.5,194.4,254,194.4z"/>
</g>
<g>
	<path class="st1" d="M127.9,146.4h-0.7c-1.5,0-2.6-1.2-2.6-2.6c0-1.5,1.2-2.6,2.6-2.6h0.7c1.5,0,2.6,1.2,2.6,2.6
		C130.5,145.2,129.4,146.4,127.9,146.4z"/>
	<path class="st1" d="M147.2,146.4H146c-1.5,0-2.6-1.2-2.6-2.6c0-1.5,1.2-2.6,2.6-2.6h1.2c1.5,0,2.6,1.2,2.6,2.6
		C149.9,145.2,148.7,146.4,147.2,146.4z M137.6,146.4h-1.2c-1.5,0-2.6-1.2-2.6-2.6c0-1.5,1.2-2.6,2.6-2.6h1.2c1.5,0,2.6,1.2,2.6,2.6
		C140.2,145.2,139.1,146.4,137.6,146.4z"/>
	<path class="st1" d="M156.3,146.4h-0.7c-1.5,0-2.6-1.2-2.6-2.6c0-1.5,1.2-2.6,2.6-2.6h0.7c1.5,0,2.6,1.2,2.6,2.6
		C158.9,145.2,157.8,146.4,156.3,146.4z"/>
</g>
<g>
	<g>
		<path class="st1" d="M248.7,307l-44-44c-3.1-3.1-3.1-8.3,0-11.4l0.9-0.9c3.1-3.1,8.3-3.1,11.4,0l44,44c3.1,3.1,3.1,8.3,0,11.4
			l-0.9,0.9C257,310.1,251.9,310.1,248.7,307z"/>
	</g>
	<g>
		<circle class="st2" cx="197.3" cy="243.1" r="41.2"/>
		<path class="st1" d="M197.3,211.4c8.5,0,16.5,3.3,22.4,9.3c12.4,12.4,12.4,32.6,0,45c-6,6-14,9.3-22.4,9.3
			c-8.5,0-16.5-3.3-22.4-9.3c-12.4-12.4-12.4-32.6,0-45C180.8,214.8,188.9,211.4,197.3,211.4 M197.3,201.9c-10.6,0-21.1,4-29.2,12.1
			c-16.1,16.1-16.1,42.2,0,58.3c8,8,18.6,12.1,29.2,12.1c10.6,0,21.1-4,29.2-12.1c16.1-16.1,16.1-42.2,0-58.3
			C218.4,206,207.9,201.9,197.3,201.9L197.3,201.9z"/>
	</g>
</g>
<g class="st5">
	<g>
		<g>
			<g>
				<defs>
					<circle id="SVGID_1_" cx="197.3" cy="243.1" r="29.1"/>
				</defs>
				<clipPath id="SVGID_2_">
					<use xlink:href="#SVGID_1_"  style="overflow:visible;"/>
				</clipPath>
				<g class="st6">
					<g>
						<g>
							<g>
								<path class="st2" d="M16.7,280.7V137.5c0-10.6,8.7-19.2,19.2-19.2h204.3c10.6,0,19.2,8.7,19.2,19.2v143.2
									c0,10.6-8.7,19.2-19.2,19.2H36C25.4,300,16.7,291.3,16.7,280.7z"/>
								<path class="st1" d="M240.2,122.1c8.5,0,15.4,6.9,15.4,15.4v143.2c0,8.5-6.9,15.4-15.4,15.4H36c-8.5,0-15.4-6.9-15.4-15.4
									V137.5c0-8.5,6.9-15.4,15.4-15.4L240.2,122.1 M240.2,118.3H36c-10.6,0-19.2,8.7-19.2,19.2v143.2c0,10.6,8.7,19.2,19.2,19.2
									h204.3c10.6,0,19.2-8.7,19.2-19.2V137.5C259.4,126.9,250.8,118.3,240.2,118.3L240.2,118.3z"/>
							</g>
							<path class="st1" d="M257.8,144H18.4c-0.5,0-0.9-0.5-0.9-0.9c0-0.5,0.5-0.9,0.9-0.9h239.5c0.5,0,0.9,0.5,0.9,0.9
								C258.7,143.5,258.4,144,257.8,144z"/>
							<path class="st1" d="M257.8,166.4H18.4c-0.5,0-0.9-0.5-0.9-0.9s0.5-0.9,0.9-0.9h239.5c0.5,0,0.9,0.5,0.9,0.9
								S258.4,166.4,257.8,166.4z"/>
							<path class="st1" d="M257.8,188.8H18.4c-0.5,0-0.9-0.5-0.9-0.9c0-0.5,0.5-0.9,0.9-0.9h239.5c0.5,0,0.9,0.5,0.9,0.9
								C258.8,188.4,258.4,188.8,257.8,188.8z"/>
							<path class="st1" d="M257.8,211.2H18.4c-0.5,0-0.9-0.5-0.9-0.9c0-0.5,0.5-0.9,0.9-0.9h239.5c0.5,0,0.9,0.5,0.9,0.9
								C258.7,210.8,258.4,211.2,257.8,211.2z"/>
							<path class="st1" d="M257.8,233.7H18.4c-0.5,0-0.9-0.5-0.9-0.9c0-0.5,0.5-0.9,0.9-0.9h239.5c0.5,0,0.9,0.5,0.9,0.9
								C258.8,233.2,258.4,233.7,257.8,233.7z"/>
							<path class="st1" d="M257.8,256H18.4c-0.5,0-0.9-0.5-0.9-0.9c0-0.5,0.5-0.9,0.9-0.9h239.5c0.5,0,0.9,0.5,0.9,0.9
								C258.8,255.6,258.4,256,257.8,256z"/>
							<path class="st1" d="M257.8,278.5H18.4c-0.5,0-0.9-0.5-0.9-0.9s0.5-0.9,0.9-0.9h239.5c0.5,0,0.9,0.5,0.9,0.9
								S258.4,278.5,257.8,278.5z"/>
						</g>
						<path class="st1" d="M83.9,298c-0.5,0-0.9-0.5-0.9-0.9v-154c0-0.5,0.5-0.9,0.9-0.9c0.5,0,0.9,0.5,0.9,0.9v154
							C84.8,297.6,84.4,298,83.9,298z"/>
						<path class="st1" d="M129,298.3c-0.5,0-0.9-0.5-0.9-0.9V143.3c0-0.5,0.5-0.9,0.9-0.9c0.5,0,0.9,0.5,0.9,0.9v154
							C129.9,297.9,129.6,298.3,129,298.3z"/>
						<path class="st1" d="M174.2,298.6c-0.5,0-0.9-0.5-0.9-0.9v-154c0-0.5,0.5-0.9,0.9-0.9c0.5,0,0.9,0.5,0.9,0.9v154
							C175.1,298.2,174.7,298.6,174.2,298.6z"/>
					</g>
					<rect x="23" y="169.3" class="st4" width="236.3" height="23.7"/>
					<rect x="23" y="214.1" class="st4" width="236.3" height="23.7"/>
					<rect x="23" y="258.9" class="st4" width="236.3" height="23.7"/>
					<path d="M71.7,157.1H28.8c-1.4,0-2.6-1.2-2.6-2.6s1.2-2.6,2.6-2.6h42.9c1.4,0,2.6,1.2,2.6,2.6C74.3,156,73.1,157.1,71.7,157.1z
						"/>
					<path d="M71.7,179.5H28.8c-1.4,0-2.6-1.2-2.6-2.6c0-1.4,1.2-2.6,2.6-2.6h42.9c1.4,0,2.6,1.2,2.6,2.6S73.1,179.5,71.7,179.5z"/>
					<g>
						<path d="M139,179.6h-0.6c-1.4,0-2.6-1.2-2.6-2.6c0-1.4,1.2-2.6,2.6-2.6h0.6c1.4,0,2.6,1.2,2.6,2.6
							C141.5,178.4,140.3,179.6,139,179.6z"/>
						<path d="M157.2,179.6H156c-1.4,0-2.6-1.2-2.6-2.6c0-1.4,1.2-2.6,2.6-2.6h1.2c1.4,0,2.6,1.2,2.6,2.6
							C159.8,178.4,158.7,179.6,157.2,179.6z M148.1,179.6h-1.2c-1.4,0-2.6-1.2-2.6-2.6c0-1.4,1.2-2.6,2.6-2.6h1.2
							c1.4,0,2.6,1.2,2.6,2.6C150.6,178.4,149.5,179.6,148.1,179.6z"/>
						<path d="M165.9,179.6h-0.6c-1.4,0-2.6-1.2-2.6-2.6c0-1.4,1.2-2.6,2.6-2.6h0.6c1.4,0,2.6,1.2,2.6,2.6
							C168.3,178.4,167.2,179.6,165.9,179.6z"/>
					</g>
					<g>
						<path d="M184.8,201.9h-0.6c-1.4,0-2.6-1.2-2.6-2.6s1.2-2.6,2.6-2.6h0.6c1.4,0,2.6,1.2,2.6,2.6
							C187.3,200.8,186.1,201.9,184.8,201.9z"/>
						<path d="M203,201.9h-1.2c-1.4,0-2.6-1.2-2.6-2.6s1.2-2.6,2.6-2.6h1.2c1.4,0,2.6,1.2,2.6,2.6
							C205.6,200.8,204.4,201.9,203,201.9z M193.9,201.9h-1.2c-1.4,0-2.6-1.2-2.6-2.6s1.2-2.6,2.6-2.6h1.2c1.4,0,2.6,1.2,2.6,2.6
							C196.4,200.8,195.3,201.9,193.9,201.9z"/>
						<path d="M211.7,201.9H211c-1.4,0-2.6-1.2-2.6-2.6s1.2-2.6,2.6-2.6h0.6c1.4,0,2.6,1.2,2.6,2.6
							C214.1,200.8,213,201.9,211.7,201.9z"/>
					</g>
					<g>
						<path d="M139,224.3h-0.6c-1.4,0-2.6-1.2-2.6-2.6s1.2-2.6,2.6-2.6h0.6c1.4,0,2.6,1.2,2.6,2.6S140.3,224.3,139,224.3z"/>
						<path d="M157.2,224.3H156c-1.4,0-2.6-1.2-2.6-2.6s1.2-2.6,2.6-2.6h1.2c1.4,0,2.6,1.2,2.6,2.6S158.7,224.3,157.2,224.3z
							 M148.1,224.3h-1.2c-1.4,0-2.6-1.2-2.6-2.6s1.2-2.6,2.6-2.6h1.2c1.4,0,2.6,1.2,2.6,2.6S149.5,224.3,148.1,224.3z"/>
						<path d="M165.9,224.3h-0.6c-1.4,0-2.6-1.2-2.6-2.6s1.2-2.6,2.6-2.6h0.6c1.4,0,2.6,1.2,2.6,2.6S167.2,224.3,165.9,224.3z"/>
					</g>
					<g>
						<path d="M92.2,156.5h-0.6c-1.4,0-2.6-1.2-2.6-2.6s1.2-2.6,2.6-2.6h0.6c1.4,0,2.6,1.2,2.6,2.6
							C94.8,155.4,93.6,156.5,92.2,156.5z"/>
						<path d="M110.4,156.5h-1.2c-1.4,0-2.6-1.2-2.6-2.6s1.2-2.6,2.6-2.6h1.2c1.4,0,2.6,1.2,2.6,2.6
							C113,155.4,111.9,156.5,110.4,156.5z M101.4,156.5h-1.2c-1.4,0-2.6-1.2-2.6-2.6s1.2-2.6,2.6-2.6h1.2c1.4,0,2.6,1.2,2.6,2.6
							C103.8,155.4,102.7,156.5,101.4,156.5z"/>
						<path d="M119.1,156.5h-0.6c-1.4,0-2.6-1.2-2.6-2.6s1.2-2.6,2.6-2.6h0.6c1.4,0,2.6,1.2,2.6,2.6
							C121.6,155.4,120.5,156.5,119.1,156.5z"/>
					</g>
					<g>
						<path class="st1" d="M184.8,246.8h-0.6c-1.4,0-2.6-1.2-2.6-2.6c0-1.4,1.2-2.6,2.6-2.6h0.6c1.4,0,2.6,1.2,2.6,2.6
							C187.3,245.6,186.1,246.8,184.8,246.8z"/>
						<path class="st1" d="M203,246.8h-1.2c-1.4,0-2.6-1.2-2.6-2.6c0-1.4,1.2-2.6,2.6-2.6h1.2c1.4,0,2.6,1.2,2.6,2.6
							C205.6,245.6,204.4,246.8,203,246.8z M193.9,246.8h-1.2c-1.4,0-2.6-1.2-2.6-2.6c0-1.4,1.2-2.6,2.6-2.6h1.2
							c1.4,0,2.6,1.2,2.6,2.6C196.4,245.6,195.3,246.8,193.9,246.8z"/>
						<path class="st1" d="M211.7,246.8H211c-1.4,0-2.6-1.2-2.6-2.6c0-1.4,1.2-2.6,2.6-2.6h0.6c1.4,0,2.6,1.2,2.6,2.6
							C214.1,245.6,213,246.8,211.7,246.8z"/>
					</g>
					<g>
						<path d="M227.3,268.5h-0.6c-1.4,0-2.6-1.2-2.6-2.6c0-1.4,1.2-2.6,2.6-2.6h0.6c1.4,0,2.6,1.2,2.6,2.6
							C229.9,267.4,228.7,268.5,227.3,268.5z"/>
						<path d="M245.6,268.5h-1.2c-1.4,0-2.6-1.2-2.6-2.6c0-1.4,1.2-2.6,2.6-2.6h1.2c1.4,0,2.6,1.2,2.6,2.6
							C248.2,267.4,247,268.5,245.6,268.5z M236.5,268.5h-1.2c-1.4,0-2.6-1.2-2.6-2.6c0-1.4,1.2-2.6,2.6-2.6h1.2
							c1.4,0,2.6,1.2,2.6,2.6C239,267.4,237.8,268.5,236.5,268.5z"/>
						<path d="M254.3,268.5h-0.6c-1.4,0-2.6-1.2-2.6-2.6c0-1.4,1.2-2.6,2.6-2.6h0.6c1.4,0,2.6,1.2,2.6,2.6
							C256.7,267.4,255.6,268.5,254.3,268.5z"/>
					</g>
					<g>
						<path d="M139,290.9h-0.6c-1.4,0-2.6-1.2-2.6-2.6s1.2-2.6,2.6-2.6h0.6c1.4,0,2.6,1.2,2.6,2.6
							C141.5,289.8,140.3,290.9,139,290.9z"/>
						<path d="M157.2,290.9H156c-1.4,0-2.6-1.2-2.6-2.6s1.2-2.6,2.6-2.6h1.2c1.4,0,2.6,1.2,2.6,2.6
							C159.8,289.8,158.7,290.9,157.2,290.9z M148.1,290.9h-1.2c-1.4,0-2.6-1.2-2.6-2.6s1.2-2.6,2.6-2.6h1.2c1.4,0,2.6,1.2,2.6,2.6
							C150.6,289.8,149.5,290.9,148.1,290.9z"/>
						<path d="M165.9,290.9h-0.6c-1.4,0-2.6-1.2-2.6-2.6s1.2-2.6,2.6-2.6h0.6c1.4,0,2.6,1.2,2.6,2.6
							C168.4,289.8,167.2,290.9,165.9,290.9z"/>
					</g>
					<path d="M71.7,201.7H28.8c-1.4,0-2.6-1.2-2.6-2.6c0-1.4,1.2-2.6,2.6-2.6h42.9c1.4,0,2.6,1.2,2.6,2.6
						C74.3,200.6,73.1,201.7,71.7,201.7z"/>
					<path d="M65.3,223.9H28.8c-1.3,0-2.4-1-2.4-2.4c0-1.3,1-2.4,2.4-2.4h36.5c1.3,0,2.4,1,2.4,2.4
						C67.6,222.8,66.6,223.9,65.3,223.9z"/>
					<path d="M65.3,246.1H28.8c-1.3,0-2.4-1-2.4-2.4s1-2.4,2.4-2.4h36.5c1.3,0,2.4,1,2.4,2.4C67.7,245.1,66.6,246.1,65.3,246.1z"/>
					<path d="M65.3,268.4H28.8c-1.3,0-2.4-1-2.4-2.4c0-1.4,1-2.4,2.4-2.4h36.5c1.3,0,2.4,1,2.4,2.4
						C67.7,267.4,66.6,268.4,65.3,268.4z"/>
					<path d="M71.7,290.9H28.8c-1.4,0-2.6-1.2-2.6-2.6s1.2-2.6,2.6-2.6h42.9c1.4,0,2.6,1.2,2.6,2.6
						C74.3,289.8,73.1,290.9,71.7,290.9z"/>
				</g>
			</g>
		</g>
	</g>
</g>
<rect x="74.8" y="23.5" class="st4" width="285.6" height="55.6"/>
<rect x="74.8" y="23.5" class="st1" width="280" height="50"/>
<g>
	<path class="st2" d="M111.4,56.1l0,2.4l-23.1,0l0-2.4l10.1,0l0-14.1l-8.7,0l0-2.5l20.3,0l0,2.5l-9,0l0,14.1L111.4,56.1z"/>
	<path class="st2" d="M122.1,37.5c-0.7,1.8-1.5,3.6-2.6,5.3l0,17.4l-2.4,0l0-13.5c-0.7,1-1.4,1.8-2.1,2.5c-0.2-0.6-1-1.9-1.3-2.5
		c2.5-2.4,4.8-6.2,6.1-9.9L122.1,37.5z M129.8,43.2l0,3.2l7,0l0,2.2l-7,0l0,3.4l7.3,0l0,2.2l-7.3,0l0,6l-2.5,0l0-17.1l-1.4,0
		c-1,2-2.3,3.8-3.5,5.1c-0.4-0.4-1.3-1.2-1.8-1.6c2.3-2.4,4.3-6.1,5.5-9.8l2.4,0.7c-0.4,1.1-0.9,2.2-1.3,3.3l10.4,0l0,2.3
		L129.8,43.2z"/>
	<path class="st2" d="M148,55.3l-5.3,0l0,2.2l-2.3,0l0-19.2l7.6,0L148,55.3z M142.7,40.5l0,5.1l3.1,0l0-5.1L142.7,40.5z M145.7,53.3
		l0-5.4l-3.1,0l0,5.4L145.7,53.3z M157,41.8l0,3l5.3,0l0,2.1l-2.1,0l0,2.5l2.8,0l0,2.1l-2.8,0l0,6.3c0,1.2-0.3,1.9-1.1,2.2
		c-0.9,0.4-2.2,0.4-4.2,0.4c-0.1-0.7-0.5-1.6-0.8-2.2c1.4,0.1,2.9,0.1,3.2,0.1c0.4,0,0.6-0.1,0.6-0.5l0-6.3l-9.3,0l0-2.1l9.3,0
		l0-2.5l-8.4,0l0-2.2l5.1,0l0-2.9l-6.1,0l0-2.2l6.1,0l0-3l2.4,0l0,3l6.2,0l0,2.1L157,41.8L157,41.8z M151.8,52
		c1.1,1.3,2.6,3.1,3.2,4.3l-2.1,1.2c-0.6-1.1-2-3.1-3.1-4.4L151.8,52z"/>
	<path class="st2" d="M168.9,46.7l0,13.6l-2.4,0l0-22.6l9.5,0l0,9L168.9,46.7z M168.9,39.5l0,1.8l4.9,0l0-1.8L168.9,39.5z M173.8,45
		l0-1.9l-4.9,0l0,1.9L173.8,45z M187.8,57.3c0,1.3-0.3,2.1-1.2,2.6c-0.9,0.4-2.3,0.4-4.5,0.4c-0.1-0.7-0.5-1.7-0.8-2.4l-7,0l0,1.3
		l-2.2,0l0-10.8l9.6,0l0,9.4c1.2,0.1,2.5,0,3,0c0.5,0,0.6-0.2,0.6-0.6l0-10.6l-7.3,0l0-9.1l9.7,0L187.8,57.3L187.8,57.3z
		 M174.4,50.3l0,2l5.2,0l0-2C179.7,50.3,174.4,50.3,174.4,50.3z M179.7,56.2l0-2.1l-5.2,0l0,2.1L179.7,56.2z M180.4,39.5l0,1.8
		l5.1,0l0-1.8L180.4,39.5z M185.4,45l0-1.9l-5.1,0l0,2L185.4,45L185.4,45z"/>
	<path class="st2" d="M194.8,53.7c-0.4,2.2-1,4.7-1.7,6.2c-0.5-0.2-1.4-0.6-2.1-0.7c0.8-1.5,1.3-3.8,1.6-5.9L194.8,53.7z
		 M200.1,52.2c-0.1-0.4-0.2-0.9-0.3-1.3c-6.3,1-7.2,1.2-7.8,1.5c-0.1-0.5-0.5-1.5-0.8-2.2c0.7-0.1,1.2-0.7,2.2-1.6
		c0.4-0.4,1.3-1.4,2.3-2.7c-2.8,0.4-3.4,0.5-3.8,0.7c-0.1-0.5-0.5-1.5-0.8-2.2c0.5-0.1,1-0.6,1.6-1.3c0.7-0.8,2.6-3.6,3.8-6.3l2.2,1
		c-1.2,2.2-2.8,4.6-4.3,6.4l2.8-0.2c0.8-1,1.4-2.1,2-3.1l2,1.3c-1.8,2.7-3.9,5.3-6,7.5l4-0.6c-0.2-0.8-0.5-1.5-0.8-2.2l1.9-0.5
		c0.7,1.7,1.4,4,1.7,5.3L200.1,52.2z M197.7,53.2c0.4,1.8,0.8,4.1,0.9,5.6l-2,0.6c-0.1-1.5-0.4-3.9-0.8-5.7L197.7,53.2z M200.7,52.5
		c0.7,1.5,1.3,3.4,1.6,4.8l-1.8,0.7c-0.3-1.3-1-3.3-1.5-4.9L200.7,52.5z M213.9,41.3c0,0,0,0.9,0,1.2c-0.3,11.3-0.6,15.2-1.6,16.4
		c-0.6,0.9-1.2,1.1-2.2,1.2c-0.9,0.1-2.4,0.1-3.9,0c-0.1-0.7-0.4-1.7-0.8-2.4c1.5,0.1,3.1,0.1,3.6,0.1c0.5,0,0.8-0.1,1-0.4
		c0.8-0.8,1-4.6,1.3-13.9l-6.8,0c-0.6,1.3-1.3,2.6-2,3.6c-0.5-0.4-1.5-1-2.1-1.3c1.8-2.2,3.1-5.6,3.9-9.2l2.4,0.5
		c-0.4,1.4-0.8,2.9-1.2,4.2L213.9,41.3L213.9,41.3L213.9,41.3z M207.8,53.6c-0.8-1.5-2.7-3.9-4.4-5.6l1.7-1.2
		c1.7,1.5,3.7,3.9,4.6,5.4L207.8,53.6z"/>
</g>
<g class="st7">
	<path class="st2" d="M232.8,59.3l6.6,0l0-19.5l-5.5,0l0-3.8c3.1-0.6,5.1-1.3,7.2-2.6l4.5,0l0,25.7l5.7,0l0,5.1l-18.4,0L232.8,59.3z
		"/>
	<path class="st2" d="M266.8,40.1c-1.4,6.2-3.6,13.9-7.1,18.4c-1.2-0.9-3.5-2-4.8-2.6c3.3-4.2,5.3-11.4,6.3-16.8L266.8,40.1z
		 M277.4,29.7l0,31.9c0,3.1-0.7,4.4-2.6,5.1c-1.9,0.8-4.8,1-8.8,1c-0.3-1.4-1.2-3.8-1.9-5.1c2.7,0.1,5.7,0.1,6.7,0.1
		c1,0,1.2-0.3,1.2-1l0-31.9L277.4,29.7z M286.7,38.7c3.3,5.9,6.8,13.3,7.8,18.6l-5.3,2.1c-0.9-5.1-4-12.8-7.2-18.9L286.7,38.7z"/>
	<path class="st2" d="M310.9,59.7l-8.4,0l0,3.6l-4.6,0l0-31.8l13,0L310.9,59.7z M302.4,36l0,7.2l3.8,0l0-7.2L302.4,36z M306.3,55.3
		l0-7.8l-3.8,0l0,7.8L306.3,55.3z M325.8,37.8l0,3.9l8.2,0l0,4.3l-3.1,0l0,3.2l4,0l0,4.3l-4,0l0,9.1c0,2.4-0.5,3.6-2.1,4.4
		c-1.6,0.7-3.8,0.9-7,0.9c-0.2-1.3-1-3.3-1.5-4.7c2,0.1,4.3,0.1,4.9,0.1c0.7,0,0.9-0.2,0.9-0.8l0-8.9l-14.5,0l0-4.3l14.5,0l0-3.2
		l-13.3,0l0-4.3l8,0l0-3.9l-9.3,0l0-4.3l9.3,0l0-4.5l4.9,0l0,4.5l9.3,0l0,4.3L325.8,37.8L325.8,37.8z M317.4,54.1
		c1.7,2,3.9,4.8,5,6.7l-4.3,2.5c-1-1.8-3.1-4.8-4.8-7L317.4,54.1z"/>
</g>
</svg>
